<svg width="36" height="36" viewBox="0 0 36 36" fill="none" xmlns="http://www.w3.org/2000/svg">
<path fill-rule="evenodd" clip-rule="evenodd" d="M9 3.14286V32.8571C9 34.5929 10.3851 36 12.0938 36H32.9062C34.6149 36 36 34.5929 36 32.8571V8.27017C36 7.43065 35.6694 6.62602 35.0818 6.03566L29.9788 0.90834C29.3996 0.326396 28.6179 0 27.8033 0H12.0938C10.3851 0 9 1.40711 9 3.14286ZM10.9688 32.8571V3.14286C10.9688 2.51167 11.4724 2 12.0938 2H27.4219V8.85714C27.4219 10.0406 28.3663 11 29.5312 11H34.0312V32.8571C34.0312 33.4883 33.5276 34 32.9062 34H12.0938C11.4724 34 10.9688 33.4883 10.9688 32.8571ZM34.0312 9V8.27017C34.0312 7.96489 33.911 7.6723 33.6974 7.45762L29.3906 3.13036V8.85714C29.3906 8.93604 29.4536 9 29.5312 9H34.0312Z" fill="#9D9C9B"/>
<path d="M22.5 27C27 27 29.25 24.75 29.25 20.25H24.75V15.75H22.5V20.25V27Z" fill="#E48762"/>
<path d="M27 18V13.5C28.6875 13.5 31.5 16.3125 31.5 18H27Z" fill="#F9D4C4"/>
<path d="M0 10.4062C0 9.47427 0.75552 8.71875 1.6875 8.71875H18.5625C19.4945 8.71875 20.25 9.47427 20.25 10.4062V27.2812C20.25 28.2132 19.4945 28.9688 18.5625 28.9688H1.6875C0.755519 28.9688 0 28.2132 0 27.2812V10.4062Z" fill="#C25B33"/>
<path d="M6.75 24.2117V12.9375H9.74927C10.8669 12.9375 11.5975 12.9913 11.941 13.099C12.4896 13.2733 12.9408 13.645 13.2946 14.2141C13.6534 14.7832 13.8329 15.5164 13.8329 16.4136C13.8329 17.2288 13.6791 17.9132 13.3715 18.4669C13.0638 19.0155 12.6793 19.4026 12.2179 19.6282C11.7565 19.8486 10.9618 19.9589 9.83386 19.9589H8.61108V24.2117H6.75ZM8.61108 14.8447V18.0439H9.6416C10.3337 18.0439 10.8029 17.9952 11.049 17.8978C11.3002 17.8004 11.5052 17.6261 11.6642 17.3749C11.8231 17.1185 11.9026 16.8058 11.9026 16.4366C11.9026 16.0624 11.8206 15.7471 11.6565 15.4907C11.4924 15.2344 11.2899 15.0626 11.049 14.9755C10.808 14.8883 10.2979 14.8447 9.51855 14.8447H8.61108Z" fill="white"/>
</svg>
