<svg width="50" height="50" viewBox="0 0 50 50" fill="none" xmlns="http://www.w3.org/2000/svg">
<path d="M39.4737 50L35.7895 46.4375L39.9342 42.5H23.6842V37.5H39.9342L35.7895 33.5L39.4737 30L50 40L39.4737 50ZM47.3684 25H42.1053V10H36.8421V17.5H10.5263V10H5.26316V45H18.4211V50H5.26316C3.81579 50 2.57675 49.5104 1.54605 48.5312C0.515351 47.5521 0 46.375 0 45V10C0 8.625 0.515351 7.44792 1.54605 6.46875C2.57675 5.48958 3.81579 5 5.26316 5H16.25C16.7325 3.54167 17.6754 2.34375 19.0789 1.40625C20.4825 0.46875 22.0175 0 23.6842 0C25.4386 0 27.0066 0.46875 28.3882 1.40625C29.7697 2.34375 30.7018 3.54167 31.1842 5H42.1053C43.5526 5 44.7917 5.48958 45.8224 6.46875C46.8531 7.44792 47.3684 8.625 47.3684 10V25ZM23.6842 10C24.4298 10 25.0548 9.76042 25.5592 9.28125C26.0636 8.80208 26.3158 8.20833 26.3158 7.5C26.3158 6.79167 26.0636 6.19792 25.5592 5.71875C25.0548 5.23958 24.4298 5 23.6842 5C22.9386 5 22.3136 5.23958 21.8092 5.71875C21.3048 6.19792 21.0526 6.79167 21.0526 7.5C21.0526 8.20833 21.3048 8.80208 21.8092 9.28125C22.3136 9.76042 22.9386 10 23.6842 10Z" fill="#52658C"/>
</svg>
