<svg width="50" height="50" viewBox="0 0 50 50" fill="none" xmlns="http://www.w3.org/2000/svg">
<path d="M5.55556 50C4.02778 50 2.71991 49.5104 1.63194 48.5312C0.543981 47.5521 0 46.375 0 45V10C0 8.625 0.543981 7.44792 1.63194 6.46875C2.71991 5.48958 4.02778 5 5.55556 5H17.2222C17.8241 3.5 18.831 2.29167 20.2431 1.375C21.6551 0.458333 23.2407 0 25 0C26.7593 0 28.3449 0.458333 29.7569 1.375C31.169 2.29167 32.1759 3.5 32.7778 5H44.4444C45.9722 5 47.2801 5.48958 48.3681 6.46875C49.456 7.44792 50 8.625 50 10V45C50 46.375 49.456 47.5521 48.3681 48.5312C47.2801 49.5104 45.9722 50 44.4444 50H5.55556ZM5.55556 45H44.4444V10H5.55556V45ZM11.1111 40H30.5556V35H11.1111V40ZM11.1111 30H38.8889V25H11.1111V30ZM11.1111 20H38.8889V15H11.1111V20ZM25 8.125C25.6019 8.125 26.0995 7.94792 26.4931 7.59375C26.8866 7.23958 27.0833 6.79167 27.0833 6.25C27.0833 5.70833 26.8866 5.26042 26.4931 4.90625C26.0995 4.55208 25.6019 4.375 25 4.375C24.3981 4.375 23.9005 4.55208 23.5069 4.90625C23.1134 5.26042 22.9167 5.70833 22.9167 6.25C22.9167 6.79167 23.1134 7.23958 23.5069 7.59375C23.9005 7.94792 24.3981 8.125 25 8.125Z" fill="#52658C"/>
</svg>
