<svg width="36" height="36" viewBox="0 0 36 36" fill="none" xmlns="http://www.w3.org/2000/svg">
<path fill-rule="evenodd" clip-rule="evenodd" d="M9 3.14286V32.8571C9 34.5929 10.3851 36 12.0938 36H32.9062C34.6149 36 36 34.5929 36 32.8571V8.27017C36 7.43065 35.6694 6.62602 35.0818 6.03566L29.9788 0.90834C29.3996 0.326396 28.6179 0 27.8033 0H12.0938C10.3851 0 9 1.40711 9 3.14286ZM10.9688 32.8571V3.14286C10.9688 2.51167 11.4724 2 12.0938 2H27.4219V8.85714C27.4219 10.0406 28.3663 11 29.5312 11H34.0312V32.8571C34.0312 33.4883 33.5276 34 32.9062 34H12.0938C11.4724 34 10.9688 33.4883 10.9688 32.8571ZM34.0312 9V8.27017C34.0312 7.96489 33.911 7.6723 33.6974 7.45762L29.3906 3.13036V8.85714C29.3906 8.93604 29.4536 9 29.5312 9H34.0312Z" fill="#9D9C9B"/>
<path fill-rule="evenodd" clip-rule="evenodd" d="M23.0625 14.7656C23.0625 14.222 23.5032 13.7812 24.0469 13.7812H30.5156C31.0593 13.7812 31.5 14.222 31.5 14.7656C31.5 15.3093 31.0593 15.75 30.5156 15.75H24.0469C23.5032 15.75 23.0625 15.3093 23.0625 14.7656Z" fill="#69C997"/>
<path fill-rule="evenodd" clip-rule="evenodd" d="M23.0625 19.2656C23.0625 18.722 23.5032 18.2812 24.0469 18.2812H30.5156C31.0593 18.2812 31.5 18.722 31.5 19.2656C31.5 19.8093 31.0593 20.25 30.5156 20.25H24.0469C23.5032 20.25 23.0625 19.8093 23.0625 19.2656Z" fill="#54AD7D"/>
<path fill-rule="evenodd" clip-rule="evenodd" d="M23.0625 23.7656C23.0625 23.222 23.5032 22.7812 24.0469 22.7812H30.5156C31.0593 22.7812 31.5 23.222 31.5 23.7656C31.5 24.3093 31.0593 24.75 30.5156 24.75H24.0469C23.5032 24.75 23.0625 24.3093 23.0625 23.7656Z" fill="#2B593D"/>
<path d="M0 10.4062C0 9.47427 0.75552 8.71875 1.6875 8.71875H18.5625C19.4945 8.71875 20.25 9.47427 20.25 10.4062V27.2812C20.25 28.2132 19.4945 28.9688 18.5625 28.9688H1.6875C0.755519 28.9688 0 28.2132 0 27.2812V10.4062Z" fill="#3D8A58"/>
<path d="M5.625 24.4929L8.78577 18.6097L5.91724 13.2188H8.10132L9.95471 16.8409L11.7697 13.2188H13.9307L11.0621 18.6943L14.2229 24.4929H11.9696L9.91626 20.5939L7.86292 24.4929H5.625Z" fill="white"/>
</svg>
