<svg width="50" height="50" viewBox="0 0 50 50" fill="none" xmlns="http://www.w3.org/2000/svg">
<path d="M5.55556 50C4.02778 50 2.71991 49.456 1.63194 48.3681C0.543981 47.2801 0 45.9722 0 44.4444V33.3333H5.55556V44.4444H44.4444V5.55556H5.55556V16.6667H0V5.55556C0 4.02778 0.543981 2.71991 1.63194 1.63194C2.71991 0.543981 4.02778 0 5.55556 0H44.4444C45.9722 0 47.2801 0.543981 48.3681 1.63194C49.456 2.71991 50 4.02778 50 5.55556V44.4444C50 45.9722 49.456 47.2801 48.3681 48.3681C47.2801 49.456 45.9722 50 44.4444 50H5.55556ZM20.8333 38.8889L16.9444 34.8611L24.0278 27.7778H0V22.2222H24.0278L16.9444 15.1389L20.8333 11.1111L34.7222 25L20.8333 38.8889Z" fill="#52658C"/>
</svg>
