<svg width="50" height="50" viewBox="0 0 50 50" fill="none" xmlns="http://www.w3.org/2000/svg">
<path d="M44.4444 -2.38419e-06C45.9722 -2.38419e-06 47.2801 0.543979 48.3681 1.63194C49.456 2.71991 50 4.02778 50 5.55555L50 16.6667H44.4444L44.4444 5.55555L5.55555 5.55555L5.55555 44.4444L44.4444 44.4444L44.4444 33.3333H50L50 44.4444C50 45.9722 49.456 47.2801 48.3681 48.3681C47.2801 49.456 45.9722 50 44.4444 50L5.55555 50C4.02778 50 2.71991 49.456 1.63194 48.3681C0.543979 47.2801 -2.38419e-06 45.9722 -2.38419e-06 44.4444L-2.38419e-06 5.55555C-2.38419e-06 4.02778 0.543979 2.71991 1.63194 1.63194C2.71991 0.543979 4.02778 -2.38419e-06 5.55555 -2.38419e-06L44.4444 -2.38419e-06ZM29.1667 11.1111L33.0556 15.1389L25.9722 22.2222L50 22.2222V27.7778L25.9722 27.7778L33.0556 34.8611L29.1667 38.8889L15.2778 25L29.1667 11.1111Z" fill="#52658C"/>
</svg>
