<svg width="24" height="21" viewBox="0 0 24 21" fill="none" xmlns="http://www.w3.org/2000/svg">
<path d="M0 21L12 0L24 21H0ZM3.76364 18.7895H20.2364L12 4.42105L3.76364 18.7895ZM12 17.6842C12.3091 17.6842 12.5682 17.5783 12.7773 17.3664C12.9864 17.1546 13.0909 16.8921 13.0909 16.5789C13.0909 16.2658 12.9864 16.0033 12.7773 15.7914C12.5682 15.5796 12.3091 15.4737 12 15.4737C11.6909 15.4737 11.4318 15.5796 11.2227 15.7914C11.0136 16.0033 10.9091 16.2658 10.9091 16.5789C10.9091 16.8921 11.0136 17.1546 11.2227 17.3664C11.4318 17.5783 11.6909 17.6842 12 17.6842ZM10.9091 14.3684H13.0909V8.8421H10.9091V14.3684Z" fill="#52658C"/>
</svg>
