<svg width="51" height="51" viewBox="0 0 51 51" fill="none" xmlns="http://www.w3.org/2000/svg">
<path d="M5.1 46.3636C3.6975 46.3636 2.49688 45.9097 1.49812 45.0017C0.499375 44.0938 0 43.0023 0 41.7273V9.27273C0 7.99773 0.499375 6.90625 1.49812 5.9983C2.49688 5.09034 3.6975 4.63636 5.1 4.63636H15.81C16.3625 3.24545 17.2869 2.125 18.5831 1.275C19.8794 0.425 21.335 0 22.95 0C24.565 0 26.0206 0.425 27.3169 1.275C28.6131 2.125 29.5375 3.24545 30.09 4.63636H40.8C42.2025 4.63636 43.4031 5.09034 44.4019 5.9983C45.4006 6.90625 45.9 7.99773 45.9 9.27273V24.8045C45.0925 24.4568 44.2637 24.1574 43.4137 23.9062C42.5638 23.6551 41.6925 23.4716 40.8 23.3557V9.27273H5.1V41.7273H20.5275C20.655 42.5773 20.8569 43.3886 21.1331 44.1614C21.4094 44.9341 21.7388 45.6682 22.1213 46.3636H5.1ZM5.1 39.4091V41.7273V9.27273V23.3557V23.1818V39.4091ZM10.2 37.0909H20.5912C20.7188 36.2795 20.9206 35.4875 21.1969 34.7148C21.4731 33.942 21.7812 33.1886 22.1213 32.4545H10.2V37.0909ZM10.2 27.8182H25.755C27.115 26.6591 28.6344 25.6932 30.3131 24.9205C31.9919 24.1477 33.7875 23.6261 35.7 23.3557V23.1818H10.2V27.8182ZM10.2 18.5455H35.7V13.9091H10.2V18.5455ZM22.95 7.53409C23.5025 7.53409 23.9594 7.36989 24.3206 7.04148C24.6819 6.71307 24.8625 6.29773 24.8625 5.79545C24.8625 5.29318 24.6819 4.87784 24.3206 4.54943C23.9594 4.22102 23.5025 4.05682 22.95 4.05682C22.3975 4.05682 21.9406 4.22102 21.5794 4.54943C21.2181 4.87784 21.0375 5.29318 21.0375 5.79545C21.0375 6.29773 21.2181 6.71307 21.5794 7.04148C21.9406 7.36989 22.3975 7.53409 22.95 7.53409ZM38.25 51C34.7225 51 31.7156 49.8699 29.2294 47.6097C26.7431 45.3494 25.5 42.6159 25.5 39.4091C25.5 36.2023 26.7431 33.4688 29.2294 31.2085C31.7156 28.9483 34.7225 27.8182 38.25 27.8182C41.7775 27.8182 44.7844 28.9483 47.2706 31.2085C49.7569 33.4688 51 36.2023 51 39.4091C51 42.6159 49.7569 45.3494 47.2706 47.6097C44.7844 49.8699 41.7775 51 38.25 51ZM36.975 46.3636H39.525V40.5682H45.9V38.25H39.525V32.4545H36.975V38.25H30.6V40.5682H36.975V46.3636Z" fill="#52658C"/>
</svg>
